<svg xmlns="http://www.w3.org/2000/svg" xmlns:xlink="http://www.w3.org/1999/xlink" viewBox="0,0,256,256" width="48px" height="48px" fill-rule="nonzero"><g transform="translate(53.33333,53.33333) scale(0.58333,0.58333)"><g fill="none" fill-rule="nonzero" stroke="none" stroke-width="1" stroke-linecap="butt" stroke-linejoin="miter" stroke-miterlimit="10" stroke-dasharray="" stroke-dashoffset="0" font-family="none" font-weight="none" font-size="none" text-anchor="none" style="mix-blend-mode: normal"><g transform="scale(5.33333,5.33333)"><path d="M36.683,43h-25.366c-2.136,0 -3.896,-1.679 -3.996,-3.813l-1.272,-27.14c-0.027,-0.57 0.428,-1.047 0.999,-1.047h33.904c0.571,0 1.026,0.477 0.999,1.047l-1.272,27.14c-0.1,2.134 -1.86,3.813 -3.996,3.813z" fill="#f4511e"></path><path d="M32.5,11.5h-2c0,-4.136 -2.916,-7.5 -6.5,-7.5c-3.584,0 -6.5,3.364 -6.5,7.5h-2c0,-5.238 3.813,-9.5 8.5,-9.5c4.687,0 8.5,4.262 8.5,9.5z" fill="#f4511e"></path><path d="M24.248,25.688c-2.741,-1.002 -4.405,-1.743 -4.405,-3.577c0,-1.851 1.776,-3.195 4.224,-3.195c1.685,0 3.159,0.66 3.888,1.052c0.124,0.067 0.474,0.277 0.672,0.41l0.13,0.087l0.958,-1.558l-0.157,-0.103c-0.772,-0.521 -2.854,-1.733 -5.49,-1.733c-3.459,0 -6.067,2.166 -6.067,5.039c0,3.257 2.983,4.347 5.615,5.309c3.07,1.122 4.934,1.975 4.934,4.349c0,1.828 -2.067,3.314 -4.609,3.314c-2.864,0 -5.326,-2.105 -5.349,-2.125l-0.128,-0.118l-1.046,1.542l0.106,0.087c0.712,0.577 3.276,2.458 6.416,2.458c3.619,0 6.454,-2.266 6.454,-5.158c-0.001,-3.835 -3.266,-5.027 -6.146,-6.08z" fill="#fafafa"></path></g></g></g></svg>